<?xml version="1.0" encoding="UTF-8" standalone="no"?>
<!-- Created with Inkscape (http://www.inkscape.org/) -->

<svg
   width="171"
   height="55"
   viewBox="0 0 45.243745 14.552086"
   version="1.1"
   id="svg5"
   xml:space="preserve"
   xmlns="http://www.w3.org/2000/svg"
   xmlns:svg="http://www.w3.org/2000/svg"><defs
     id="defs2" /><path
     id="path30-2-6"
     style="fill:#ffffff;fill-opacity:1;stroke:none;stroke-width:0.138846px;stroke-linecap:butt;stroke-linejoin:miter;stroke-opacity:1"
     d="m 35.852635,2.9440721 -0.357898,0.214936 c -0.01634,0.06384 -0.04747,0.312035 0.214934,0.894418 0.0082,0.01837 -0.29506,-0.617445 -0.398464,-0.834224 -2.259094,0.774236 -2.26954,1.999351 -2.290025,3.2436577 0,0 -0.0094,0.076121 0.06968,0.1625913 l 2.309326,0.011455 c 0.01953,-0.038227 0.04409,-0.090326 0.04482,-0.1236624 l 0.05333,-0.4756696 0.2326,-0.588537 c 0.08445,0.197372 0.453137,0.590434 1.853613,1.2513354 0,0 0.17374,0.1187182 0.327146,0.2414343 0,0 0.192927,0.1561762 0.54797,0.2744751 0.02179,-0.1699548 0.04737,-0.278819 0.07328,-0.348083 l 0.437395,0.1321668 0.497916,-0.044493 -0.619941,-0.3762176 0.04285,-0.070015 C 38.59663,6.251921 38.36185,6.1471601 38.36185,6.1471601 l -0.74066,-0.539465 -0.288542,-0.171751 c -0.577871,-0.540587 -0.532653,-0.546733 -1.145013,-1.048505 0.05519,-0.105504 -0.07472,-0.157546 -0.12955,-0.225405 -0.143544,-0.193979 -0.326662,-0.646339 -0.205448,-1.217965 z m -0.388978,3.9856256 -2.321758,0.2456866 c -0.01525,0.054665 -0.01243,0.1050117 -0.01243,0.1050117 l 0.08081,1.8231874 0.242415,0.212318 -0.267933,-0.1040266 -0.823428,2.1850112 v 3.27e-4 l 0.973916,0.603913 1.386447,-2.5131402 -0.08375,-1.5748821 c 0.475012,0.4192131 0.567577,0.5401124 1.50062,1.7616832 l 0.647096,2.0695281 0.157031,-0.02552 0.677192,-0.167173 C 37.410393,10.731754 37.319204,9.8792006 37.203754,9.036851 L 35.763001,7.2967589 C 35.63617,7.1067755 35.547252,6.986772 35.463662,6.9297012 Z" /><path
     id="path35-6-0"
     style="fill:#ffffff;fill-opacity:1;stroke:none;stroke-width:0.138846px;stroke-linecap:butt;stroke-linejoin:miter;stroke-opacity:1"
     d="m 39.74306,0.33213511 c 5e-6,3.31e-4 -5e-6,6.01e-4 0,0.001 l 3.27e-4,-0.001 z m 0,0.001 c -0.07648,0.229695 -0.129895,0.466275 -0.165209,0.70630799 l 0.221152,0.01019 c -0.03155,-0.22718499 -0.0517,-0.46509899 -0.05595,-0.71645099 z M 39.278512,1.1258101 c 8.87e-4,0.06068 0.404681,2.629278 0.404681,2.629278 0.233175,1.018606 1.780003,2.199404 1.780003,2.199404 0.04362,0.03994 1.034437,0.1118855 1.034437,0.1118855 0,0 -0.893193,0.031491 -1.115895,-0.014399 -0.02985,-0.0062 0.09847,0.2594278 0.09847,0.2594278 0.170258,-0.048113 1.024949,-0.063795 1.024949,-0.063795 l -0.906849,0.1318393 c -0.03402,0.0079 -0.05692,0.095859 -0.05692,0.095859 0.04892,0.4196657 0.114004,0.6459628 0.1109,1.128655 -0.112813,0.2429784 -0.76343,0.9023234 -1.232034,1.1800175 l -0.0019,0.012108 -0.0039,-0.00229 c 0,0 -0.04188,0.7766575 -0.784824,1.1410873 l -0.0014,-0.00137 -0.370002,0.1923615 0.578067,0.132822 c 0.267566,-0.137302 0.631065,-0.7144887 0.631065,-0.7144887 -0.182204,0.4062913 -0.359956,0.6384747 -0.477633,0.7622507 0.505582,0.35928 1.658246,0.878985 4.214955,1.057011 -0.02426,-0.06344 -0.03406,-0.108345 -0.03533,-0.140346 l 0.613073,0.08244 0.206103,-0.05496 -0.332054,-0.377528 c -0.05302,-0.0086 -0.140679,-0.04004 -0.234237,-0.07818 0.03984,-0.05539 0.09263,-0.111931 0.164228,-0.155394 0,0 -1.376258,-0.134925 -2.406817,-0.9245164 0.114417,-0.013174 1.134747,-0.1446808 1.688075,-0.7687946 0.173558,-0.2690143 -0.0058,-2.7156431 -0.0058,-2.7156431 -0.03426,-0.041881 -0.07429,-0.059935 -0.105344,-0.070336 l 0.03435,-0.011776 c 0,0 0.626008,0.2296982 0.866611,0.1311863 l 0.06575,-0.042855 C 44.65061,6.2114262 44.576071,6.1125259 44.596,6.0365646 44.134713,6.0799916 43.722846,5.9021086 43.722846,5.9021086 l -0.01043,0.003 c 0.0089,-0.02108 0.02641,-0.05661 0.06838,-0.100762 0,0 0.06291,-0.09179 0.01996,-0.257464 -0.0558,-0.581885 -0.221889,-1.155946 -0.238813,-1.741074 0.142226,-0.687218 0.410516,-1.353822 0.631065,-2.021764 l 0.02126,-0.02977 c 0,0 0.02966,-0.04068 0.03337,-0.0458 l -0.663782,-0.3795 -0.859087,1.780004 -0.389958,1.868989 c 0,0 -0.951524,-0.599476 -1.638676,-1.613815 -0.07291,-0.123816 -0.126895,-0.235073 -0.147544,-0.321258 l -0.515583,-1.865376 c 0,0 -0.04786,-0.0068 -0.06903,-0.01019 z" /><path
     id="path36-1-6"
     style="fill:#ffffff;fill-opacity:1;stroke-width:0.262265;stroke-linecap:round;stroke-opacity:0.494845"
     d="m 38.166011,3.7262241 c 0,0.570323 -0.653255,0.546703 -1.223584,0.546703 -0.154995,0 -0.557964,-0.01836 -0.665867,-0.118556 -0.166978,-0.196171 -0.262666,-0.42068 -0.262666,-0.705842 10e-7,-0.570328 0.462341,-1.03267 1.03267,-1.03267 0.570326,0 1.119447,0.740036 1.119447,1.310365 z" /><path
     id="path36-6-8-2"
     style="fill:#ffffff;fill-opacity:1;stroke-width:0.262265;stroke-linecap:round;stroke-opacity:0.494845"
     d="M 40.131957,9.2644873 C 39.895829,9.7836396 39.320372,9.8903467 38.80122,9.6542199 38.28207,9.418094 38.052635,8.8058137 38.288765,8.286667 c 0.236128,-0.5191536 0.971128,-0.4908679 1.343008,-0.1197435 0.403694,0.4028732 0.736313,0.5784148 0.500184,1.0975638 z" /><path
     d="m 10.964246,10.800183 c 0.285345,-0.348287 0.543414,-0.702871 0.774207,-1.0637476 0.230792,-0.3608753 0.407035,-0.6986737 0.528724,-1.013394 0.138477,-0.3776631 0.230794,-0.9840188 0.276953,-1.8190702 0.04615,-0.8350493 0.06924,-1.4917621 0.06924,-1.9701341 l 2.813579,0.490962 c -0.04196,0.214008 -0.12379,0.556002 -0.245481,1.0259787 -0.121692,0.465784 -0.297933,1.0008056 -0.528726,1.6050603 -0.230793,0.6000632 -0.493057,1.0763368 -0.786795,1.428821 -0.381858,0.4615855 -0.811972,0.8749189 -1.290343,1.2399879 -0.474175,0.360877 -0.92737,0.652513 -1.35958,0.874919 -0.432214,0.222397 -0.774208,0.381856 -1.025981,0.478371 -0.2475792,0.09651 -0.4238207,0.159457 -0.528726,0.188829 0.046165,-0.04618 0.1279845,-0.130086 0.2454792,-0.251775 0.1174948,-0.12169 0.2559718,-0.272756 0.4154288,-0.453195 L 8.5535099,12.216409 C 8.5115489,12.006601 8.4569979,11.666704 8.3898567,11.196727 8.3269097,10.722547 8.2954407,10.2211 8.2954407,9.6923756 c 0,-0.4280212 0.031468,-0.8056798 0.094416,-1.132985 C 8.5241329,7.7746914 8.761221,7.0886084 9.1011157,6.5011347 9.4410115,5.9094641 9.757827,5.4646601 10.051565,5.1667311 c 0.297932,-0.302128 0.516136,-0.503551 0.654613,-0.604261 -0.09651,0.331504 -0.218204,0.845541 -0.365073,1.5421205 -0.142671,0.6923802 -0.214008,1.3763634 -0.214008,2.0519566 0,0.2937363 0.01678,0.5434139 0.05036,0.7490305 0.07973,0.4783735 0.341995,1.1099043 0.786795,1.8946053 z m 6.810497,-6.1244149 c 0.03777,-0.03778 0.06084,-0.06294 0.06924,-0.07553 0.0084,-0.01259 0.0147,-0.021 0.01888,-0.02519 -0.0041,0 -0.01259,0.03778 -0.02518,0.113306 0.67979,0.09651 1.340699,0.268557 1.982723,0.516141 0.646221,0.243379 1.202223,0.627334 1.668005,1.1518655 0.469979,0.5245262 0.704968,1.193827 0.704968,2.0078979 0,0.8812099 -0.270657,1.5924707 -0.811972,2.1337855 -0.541315,0.541319 -1.177045,0.937865 -1.907191,1.189634 -0.730147,0.247579 -1.365876,0.402838 -1.90719,0.465785 -0.537118,0.06295 -0.927369,0.09651 -1.170751,0.100705 0.117494,-0.03353 0.316816,-0.109079 0.597964,-0.226598 0.281148,-0.117491 0.579082,-0.276949 0.893798,-0.478373 l -2.114902,0.629439 c -0.04196,-0.214007 -0.09651,-0.5623 -0.163656,-1.044864 -0.06295,-0.486766 -0.09441,-0.99451 -0.09441,-1.5232356 0,-0.5455114 0.04826,-1.0049971 0.144771,-1.378463 0.130073,-0.5161351 0.369258,-1.059549 0.717546,-1.6302336 0.352482,-0.5706867 0.728047,-1.1099067 1.126688,-1.6176507 -0.184635,-0.113294 -0.34409,-0.19932 -0.478371,-0.258068 -0.13428,-0.06295 -0.228695,-0.104909 -0.283245,-0.125888 0.281148,0 0.625239,0.02519 1.032273,0.07553 z m 0.308423,6.7412589 c 0.503549,-0.365069 0.916879,-0.801481 1.239988,-1.309224 0.32311,-0.5077455 0.484666,-1.1057088 0.484666,-1.7938928 0,-0.3692652 -0.06295,-0.7196576 -0.18883,-1.0511624 C 19.493102,6.9312442 19.329449,6.6354139 19.128029,6.3752477 18.930805,6.1150803 18.708406,5.8779931 18.460828,5.6639841 c -0.247579,-0.214006 -0.48047,-0.388153 -0.698675,-0.522432 -0.163653,0.885409 -0.24548,1.6973787 -0.24548,2.4359194 0,0.4489961 0.03777,0.8602294 0.113294,1.2336941 0.234989,1.166555 0.386053,2.0351754 0.453194,2.6058614 z M 24.69224,4.7890671 c -0.04616,-0.03359 -0.119593,-0.07974 -0.220302,-0.138477 -0.09651,-0.06294 -0.159457,-0.100704 -0.188831,-0.113294 0.247579,0 0.560198,0.03359 0.93786,0.100716 0.52453,-0.130086 1.036471,-0.195126 1.535823,-0.195126 -0.05455,0.01679 -0.148966,0.05456 -0.283247,0.113294 -0.130083,0.05455 -0.28954,0.14267 -0.47837,0.264358 0.482568,0.142676 0.918976,0.346194 1.309226,0.610553 0.394447,0.260168 0.723851,0.625241 0.988215,1.0952238 0.264363,0.4657828 0.396545,1.0385671 0.396545,1.71836 0,1.1287865 -0.344092,1.9890151 -1.032275,2.5806821 -0.683988,0.591671 -1.372171,0.967235 -2.064549,1.126694 -0.688184,0.159457 -1.202223,0.243384 -1.542119,0.251775 0.07554,-0.02938 0.197223,-0.08814 0.365073,-0.176245 0.172045,-0.09232 0.369268,-0.222399 0.591669,-0.390247 -0.34409,-0.109101 -0.656711,-0.237088 -0.937859,-0.383957 -0.281148,-0.151066 -0.566492,-0.367172 -0.856032,-0.64832 C 22.927723,10.32391 22.694831,9.9840131 22.514392,9.5853705 22.338151,9.1825329 22.243735,8.7062593 22.231147,8.1565484 c 0,-0.9273684 0.230792,-1.6554125 0.69238,-2.1841373 0.465782,-0.532923 1.055353,-0.927374 1.768713,-1.183344 z m 0.660909,0.528724 c -0.331504,0.323114 -0.606357,0.725956 -0.824562,1.2085226 -0.214008,0.4783666 -0.321011,1.0385672 -0.321011,1.6805904 0.0041,0.5203346 0.06295,0.9882172 0.176241,1.4036431 0.117495,0.4112288 0.258069,0.7616148 0.421722,1.0511568 0.163654,0.289539 0.333601,0.528726 0.509844,0.717556 0.386053,-0.356679 0.704967,-0.793085 0.956742,-1.309227 0.25597,-0.5203323 0.383956,-1.1287866 0.383956,-1.8253593 -0.0084,-1.1036144 -0.442704,-2.0792411 -1.302932,-2.9268826 z"
     id="text36-7-6"
     style="font-size:24.5646px;line-height:1.25;font-family:Karate;-inkscape-font-specification:Karate;fill:#ffffff;fill-opacity:1;stroke-width:0.322273"
     aria-label="Judo" /><path
     id="path48-2-1"
     style="fill:#ffffff;fill-opacity:1;stroke:none;stroke-width:0.138846px;stroke-linecap:butt;stroke-linejoin:miter;stroke-opacity:1"
     d="m 32.42643,11.557838 -0.186801,0.461932 -0.755054,0.885912 c 0,0 0.3363,0.329084 0.814922,0.175678 l 0.314387,-0.914374 0.346122,-0.242416 z" /><path
     id="path49-0-8"
     style="fill:#ffffff;fill-opacity:1;stroke:none;stroke-width:0.138846px;stroke-linecap:butt;stroke-linejoin:miter;stroke-opacity:1"
     d="m 37.51552,11.693278 -0.546335,0.124642 0.182549,0.956249 1.613813,-0.07524 0.09553,-0.216898 c 0,0 -1.032614,-7.3e-5 -1.223528,-0.260409 -0.07762,-0.210021 -0.109147,-0.396945 -0.122026,-0.528341 z" /><path
     id="path55-7-7"
     style="fill:#ffffff;fill-opacity:1;stroke:none;stroke-width:0.152106px;stroke-linecap:butt;stroke-linejoin:miter;stroke-opacity:1"
     d="m 38.493688,0.10705711 c 0,0 -0.01077,0.139125 0.05398,0.166518 0.203926,0.148285 0.891474,0.367386 0.891474,0.367386 l 0.06085,0.39486599 0.515256,0.02355 -0.04286,-0.87871499 c -0.59937,-0.01065 -1.478703,-0.07361 -1.478703,-0.07361 z m 1.022333,1.03312999 0.09029,0.587882 0.440994,-0.01243 -0.0265,-0.545026 z" /><path
     d="m 5.9555579,11.20014 c 0.4668207,0.101059 0.842202,0.168445 1.1261427,0.20213 0.2887531,0.0337 0.5005076,0.05536 0.6352599,0.06496 -0.1780652,0.139562 -0.507728,0.320038 -0.9889847,0.541414 -0.4812568,0.216564 -1.0924535,0.346502 -1.83359,0.389817 -0.1491896,0.139564 -0.2719103,0.247851 -0.3681621,0.32485 -0.091437,0.07699 -0.1564076,0.12994 -0.1949081,0.158818 l 0.1155015,-0.469226 c -0.3368797,0 -0.6761661,-0.0337 -1.0178593,-0.10106 C 2.8033239,12.201165 2.1560335,11.991812 1.4870855,11.683807 0.82294997,11.375807 0.32725479,11.130365 0,10.947487 L 1.920217,8.6302297 C 2.1223443,8.8467931 2.4183189,9.1451734 2.8081363,9.5253671 3.2027673,9.9055641 3.573335,10.206344 3.9198406,10.427725 4.19897,10.615411 4.4997548,10.75979 4.8221972,10.860858 5.0868905,9.3930181 5.2192349,8.2404066 5.2192349,7.4030205 5.2192349,6.99395 5.1903559,6.6041269 5.1326089,6.2335637 5.0363607,5.6223661 4.8029475,4.9630461 4.4323798,4.2555991 4.061811,3.5481531 3.7634318,3.0235831 3.5372413,2.6818871 l 4.0786561,-1.508738 c 0.067369,0.322441 0.1491884,0.849414 0.2454402,1.580932 0.1010597,0.726695 0.1515964,1.496711 0.1515964,2.31003 0,0.60157 -0.043313,1.1694526 -0.1299399,1.7036506 C 7.6134895,8.3655341 6.9710127,9.8429958 5.9555579,11.20014 Z"
     style="font-size:24.5646px;line-height:1.25;font-family:Karate;-inkscape-font-specification:Karate;fill:#ffffff;fill-opacity:1;stroke-width:0.369608"
     id="path1-6-8-9" /><path
     id="path57-9-2"
     style="fill:#ffffff;fill-opacity:1;stroke:none;stroke-width:0.157439px;stroke-linecap:butt;stroke-linejoin:miter;stroke-opacity:1"
     d="m 35.555912,6.6159638 c -0.07072,0.031743 -0.06386,0.022166 -0.09609,0.029692 l -0.0629,-0.01236 -2.241974,0.1032935 C 32.792877,6.7646663 32.554772,6.8476839 32.223275,7.0601955 31.962517,7.2446918 31.771158,6.809928 31.771158,6.809928 l -0.188109,0.2780744 c 0,0 0.281556,0.3653876 0.64317,0.2522298 0.362621,-0.2135334 0.796463,-0.266651 1.21237,-0.3070096 l 2.025081,-0.078046 0.111232,-0.049396 c 8.87e-4,9.497e-4 0.0019,0.00206 0.0026,0.00298 z" /><path
     style="fill:#ffffff;stroke-width:0.633067"
     d="m 44.16242,1.7166571 c -44.32991875,-1.78396799 -44.32991875,-1.78396799 0,0 z"
     id="path6-0" /><path
     d="m 44.608055,0.20258411 c -0.115269,0.0014 -0.189399,0.0173 -0.240125,0.03861 -0.03382,0.0142 -0.05755,0.03116 -0.07295,0.04809 -0.0077,0.0085 -0.01343,0.01752 -0.01734,0.02486 -0.0032,0.0058 -0.0052,0.01175 -0.0062,0.01472 l -0.0014,0.0026 c -2.2e-5,6.8e-5 0,0.0014 0,0.0014 l -0.200213,0.639244 -0.340233,0.33957899 0.513246,0.277421 c 0,0 0.109056,-0.119638 0.193016,-0.234891 0.09682,-0.134012 0.193714,-0.267844 0.295441,-0.39813499 2.86e-4,-4.73e-4 0.005,-0.0094 0.0062,-0.01243 0.0023,-0.0062 0.0029,-0.01077 0.0039,-0.01505 0.0045,-0.01884 0.01111,-0.0686 0.01476,-0.105011 0.0063,-0.06273 0.01258,-0.14491 0.01865,-0.226058 0.01212,-0.162296 0.02225,-0.322894 0.02225,-0.322894 l 0.0036,-0.06314 -0.06314,-0.0049 c -0.04825,-0.0032 -0.09113,-0.0044 -0.129551,-0.0039 z"
     style="fill:#ffffff;fill-opacity:1;stroke:none;stroke-width:0.138846px;stroke-linecap:butt;stroke-linejoin:miter;stroke-opacity:1"
     id="path1-9" /></svg>
